<svg width="20" height="20" viewBox="0 0 20 20" fill="none" xmlns="http://www.w3.org/2000/svg">
<path fill-rule="evenodd" clip-rule="evenodd" d="M15.7242 4.90145L4.89683 15.7289L3.96875 14.8008L14.7962 3.97338L15.7242 4.90145Z" fill="#07000E"/>
<path fill-rule="evenodd" clip-rule="evenodd" d="M14.3254 4.43636C12.1428 6.61889 12.2787 10.3217 14.3254 12.3683L14.7894 12.8324L15.7175 11.9043L15.2534 11.4403C13.6995 9.88634 13.6031 7.01481 15.2534 5.36444L15.7172 4.90065L14.7892 3.97257L14.3254 4.43636Z" fill="#07000E"/>
<path fill-rule="evenodd" clip-rule="evenodd" d="M15.2554 5.3586C13.0729 7.54113 9.37008 7.40524 7.32341 5.35857L6.85938 4.89453L7.78745 3.96645L8.25149 4.43049C9.80545 5.98445 12.677 6.08089 14.3273 4.43052L14.7911 3.96673L15.7192 4.89481L15.2554 5.3586Z" fill="#07000E"/>
</svg>
